<?xml version="1.0" encoding="UTF-8"?>
<svg width="200px" height="29px" viewBox="0 0 200 29" version="1.1" xmlns="http://www.w3.org/2000/svg" xmlns:xlink="http://www.w3.org/1999/xlink">
    <!-- Generator: Sketch 51 (57462) - http://www.bohemiancoding.com/sketch -->
    <title>logo-17a86f0a</title>
    <desc>Created with Sketch.</desc>
    <defs></defs>
    <g id="Page-1" stroke="none" stroke-width="1" fill="none" fill-rule="evenodd">
        <g id="logo-17a86f0a" transform="translate(0.000000, -1.000000)" fill="#3A3E40">
            <path d="M190.61,10.271 C191.039,9.277 191.673,8.781 192.512,8.781 C193.111,8.781 193.57,9.032 193.89,9.533 C194.209,10.035 194.409,10.839 194.488,11.945 C194.508,12.15 194.524,12.334 194.533,12.498 L194.563,13.036 C194.573,13.23 194.578,13.45 194.578,13.696 L194.578,14.587 L189.965,14.587 C189.965,12.703 190.18,11.264 190.61,10.271 Z M199.731,17.962 C199.431,18.428 199.181,18.778 198.982,19.01 C198.782,19.244 198.513,19.472 198.173,19.694 C197.294,20.323 196.226,20.637 194.968,20.637 C191.653,20.637 189.985,18.742 189.965,14.952 L199.881,14.952 C199.776221,14.0104621 199.507146,13.0945917 199.086,12.246 C198.697965,11.4631652 198.164471,10.7613429 197.514,10.178 C196.864797,9.60589038 196.112792,9.16235659 195.298,8.871 C194.458,8.568 193.54,8.416 192.542,8.416 C191.445792,8.40711675 190.35952,8.62430298 189.351,9.054 C187.393437,9.87890137 185.838867,11.4406544 185.023,13.402 C184.599589,14.4121853 184.385277,15.4976958 184.393,16.593 C184.393,17.709 184.593,18.742 184.993,19.694 C185.375758,20.6228082 185.940901,21.4654224 186.655,22.172 C187.377648,22.8797888 188.23303,23.4378093 189.172,23.814 C190.166626,24.2139639 191.230006,24.4150889 192.302,24.406 C193.48,24.406 194.558,24.179 195.537,23.723 C196.513279,23.2681862 197.373565,22.5976692 198.053,21.762 C198.273,21.478 198.468,21.215 198.637,20.971 C198.807,20.728 198.962,20.475 199.102,20.212 C199.242,19.948 199.381,19.649 199.521,19.314 C199.661,18.98 199.821,18.569 200,18.083 L199.731,17.962 Z M183.008,22.979 C182.926834,22.8563064 182.861326,22.7239466 182.813,22.585 C182.756269,22.4125425 182.716087,22.235075 182.693,22.055 C182.659198,21.78856 182.639503,21.5205193 182.634,21.252 C182.622156,20.8574482 182.616822,20.4627278 182.618,20.068 L182.618,1.12 C182.221,1.241 181.884,1.347 181.606,1.437 C181.328,1.529 181.054,1.619 180.787,1.711 C180.518,1.802 180.226,1.893 179.908,1.983 C179.591,2.074 179.193,2.18 178.716,2.302 C178.259,2.423 177.867,2.524 177.539,2.605 C177.211,2.685 176.907,2.762 176.628,2.833 C176.348,2.904 176.063,2.969 175.774,3.03 C175.484,3.091 175.139,3.161 174.74,3.242 L174.8,3.575 C175.299,3.596 175.694,3.672 175.983,3.803 C176.273,3.934 176.527,4.151 176.748,4.455 C176.987,4.778 177.147,5.157 177.226,5.591 C177.306,6.026 177.346,6.698 177.346,7.607 L177.346,20.068 C177.346,21.019 177.316,21.691 177.257,22.085 C177.197,22.48 177.096,22.778 176.957,22.979 C176.790095,23.1923797 176.567114,23.3551144 176.313,23.449 C176.063,23.541 175.679,23.606 175.16,23.647 L175.16,24.011 L184.806,24.011 L184.806,23.647 C184.266,23.606 183.872,23.541 183.622,23.449 C183.373775,23.3593764 183.159321,23.1952174 183.008,22.979 Z M169.134,21.701 C168.611,22.897 167.877,23.495 166.932,23.495 C166.389,23.495 165.897,23.272 165.454,22.826 L165.454,10.848 C165.897,10.564 166.238,10.372 166.48,10.27 C166.708721,10.1713672 166.954924,10.1196783 167.204,10.118 C168.048,10.118 168.711,10.701 169.193,11.866 C169.676,13.032 169.918,14.638 169.918,16.685 C169.918,18.833 169.656,20.505 169.134,21.701 Z M175.114,12.717 C174.843,11.836 174.463,11.075 173.972,10.437 C173.502641,9.81715478 172.902394,9.30841355 172.214,8.947 C171.517421,8.58924194 170.744027,8.40696421 169.961,8.416 C169.201343,8.41544411 168.449602,8.57028449 167.752,8.871 C167.041,9.176 166.275,9.682 165.454,10.392 L165.454,8.416 C165.077,8.557 164.75,8.679 164.471,8.779 C164.193,8.88 163.92,8.977 163.652,9.067 C163.384,9.159 163.091,9.249 162.773,9.34 C162.455,9.432 162.059,9.547 161.582,9.689 C161.106,9.831 160.703,9.946 160.375,10.037 C160.047,10.128 159.743,10.215 159.464,10.295 C158.851043,10.4716134 158.231205,10.6234037 157.606,10.75 L157.636,11.052 C158.155,11.094 158.559,11.18 158.849,11.311 C159.138,11.442 159.393,11.649 159.613,11.932 C159.733,12.094 159.827,12.265 159.897,12.448 C159.967,12.629 160.022,12.841 160.062,13.084 C160.102,13.326 160.132,13.614 160.152,13.948 C160.172,14.281 160.182,14.67 160.182,15.115 L160.182,25.967 C160.182,26.311 160.177,26.594 160.167,26.817 C160.157,27.039 160.142,27.231 160.122,27.393 C160.102,27.553 160.072,27.716 160.033,27.878 C159.973,28.261 159.842,28.564 159.643,28.787 C159.423,29.07 159.164,29.267 158.864,29.378 C158.565,29.49 158.075,29.574 157.396,29.636 L157.396,30 L168.061,30 L168.061,29.636 C167.421,29.595 166.952,29.53 166.653,29.44 C166.37147,29.3615104 166.120619,29.1989282 165.934,28.974 C165.834,28.854 165.754,28.724 165.695,28.584 C165.62468,28.4098516 165.574033,28.2283932 165.544,28.043 C165.499834,27.7798229 165.474768,27.513795 165.469,27.247 C165.45798,26.8611015 165.45298,26.4750545 165.454,26.089 L165.454,23.312 C165.975,23.718 166.451,24.001 166.881,24.164 C167.312,24.325 167.818,24.407 168.399,24.407 C169.370773,24.4135957 170.329601,24.1840123 171.193,23.738 C172.065049,23.282978 172.832702,22.6512142 173.447,21.883 C174.087,21.093 174.592,20.166 174.964,19.101 C175.334,18.038 175.52,16.887 175.52,15.651 C175.52,14.577 175.384,13.599 175.114,12.717 Z M150.522,23.13 C150.332,23.414 149.957,23.586 149.398,23.647 L149.398,24.011 L157.846,24.011 L157.846,23.647 C157.386,23.607 157.042,23.531 156.812,23.42 C156.588161,23.3139439 156.404426,23.1386242 156.288,22.92 C156.188596,22.7603437 156.131787,22.5778671 156.123,22.39 L156.078,21.436 L156.049,20.679 L156.049,12.716 C156.049,9.849 154.9,8.416 152.604,8.416 C151.964,8.416 151.325,8.522 150.686,8.735 C150.00264,8.9700287 149.356934,9.30281828 148.769,9.723 C148.609,9.825 148.464,9.925 148.335,10.026 C148.205,10.128 148.07,10.239 147.93,10.361 C147.777648,10.4946965 147.627952,10.6313899 147.481,10.771 C147.292893,10.9503248 147.103219,11.1279983 146.912,11.304 C146.554,9.378 145.383,8.416 143.397,8.416 C142.762,8.416 142.151,8.517 141.563,8.719 C140.975,8.922 140.332,9.257 139.633,9.723 C139.290267,9.94235618 138.960083,10.1807292 138.644,10.437 C138.496985,10.5553199 138.357075,10.6822069 138.225,10.817 L137.746,11.304 L137.746,8.416 L136.517,8.84 C135.938,9.042 135.409,9.219 134.93,9.369 C134.451,9.521 133.991,9.663 133.552,9.793 C133.112,9.925 132.673,10.046 132.234,10.157 L130.856,10.505 C130.724242,10.5554801 130.588856,10.5959287 130.451,10.626 C130.281,10.667 130.087,10.707 129.867,10.747 L129.897,11.05 C130.416,11.09 130.82,11.176 131.11,11.307 C131.4,11.439 131.654,11.646 131.874,11.928 C131.994,12.089 132.089,12.261 132.159,12.443 C132.228,12.625 132.284,12.837 132.324,13.079 C132.363,13.321 132.393,13.609 132.413,13.942 C132.433,14.275 132.444,14.663 132.444,15.107 L132.444,20.074 C132.444,21.023 132.419,21.688 132.368,22.072 C132.319,22.456 132.204,22.758 132.024,22.98 C131.846221,23.20174 131.60632,23.3653881 131.335,23.45 C131.078,23.534 130.68,23.593 130.171,23.634 C129.698,23.593 129.333,23.533 129.104,23.449 C128.8554,23.3590569 128.640623,23.1945692 128.489,22.978 C128.407527,22.8529274 128.337573,22.7207184 128.28,22.583 C128.212592,22.4121187 128.167227,22.2333464 128.145,22.051 C128.110712,21.783604 128.091016,21.5145387 128.086,21.245 C128.075,20.921 128.07,20.525 128.07,20.059 L128.07,8.355 C127.741512,8.47861623 127.412171,8.59995249 127.082,8.719 C126.509426,8.92692594 125.929737,9.11470801 125.344,9.282 C125.025,9.373 124.635,9.49 124.176,9.631 C123.716,9.774 123.322,9.89 122.992,9.981 L122.079,10.239 C121.799,10.32 121.514,10.397 121.226,10.468 C120.936,10.539 120.591,10.615 120.192,10.695 L120.222,11 C120.741,11.04 121.145,11.126 121.435,11.258 C121.724,11.39 121.979,11.597 122.199,11.881 C122.319,12.044 122.414,12.216 122.484,12.398 C122.554,12.58 122.613,12.793 122.663,13.037 C122.713,13.28 122.748,13.568 122.768,13.903 C122.788,14.237 122.798,14.627 122.798,15.073 L122.798,20.059 C122.798,21.012 122.768,21.681 122.708,22.065 C122.648,22.451 122.538,22.755 122.379,22.978 C122.227356,23.1941348 122.013044,23.3585337 121.765,23.449 C121.514,23.54 121.12,23.606 120.581,23.647 L120.581,24.011 L139.153,24.011 L139.153,23.647 C138.911965,23.6348649 138.674519,23.5835252 138.45,23.495 C138.270069,23.4223643 138.117781,23.2945824 138.015,23.13 C137.915,22.968 137.845,22.75 137.806,22.476 C137.761478,22.1281681 137.741429,21.7776399 137.746,21.427 L137.746,11.698 C138.165,11.293 138.539,11.01 138.869,10.848 C139.199,10.685 139.533,10.604 139.873,10.604 C140.172,10.604 140.446,10.665 140.696,10.787 C140.946,10.908 141.131,11.081 141.25,11.304 C141.41,11.567 141.515,11.866 141.565,12.2 C141.615,12.535 141.64,13.047 141.64,13.735 L141.64,21.427 C141.64,21.853 141.62,22.202 141.58,22.476 C141.54,22.75 141.47,22.968 141.37,23.13 C141.270944,23.2916503 141.124705,23.419042 140.951,23.495 C140.771,23.576 140.541,23.626 140.262,23.647 L140.262,24.011 L148.32,24.011 L148.32,23.647 C148.021,23.626 147.781,23.576 147.601,23.495 C147.427202,23.4187767 147.280713,23.2914712 147.181,23.13 C147.081,22.968 147.012,22.75 146.972,22.476 C146.927478,22.1281681 146.907429,21.7776399 146.912,21.427 L146.912,11.698 C147.355,11.293 147.747,11.005 148.089,10.833 C148.406094,10.6668216 148.758023,10.5780683 149.116,10.574 C149.377,10.574 149.634,10.635 149.886,10.757 C150.137,10.878 150.323,11.04 150.444,11.242 C150.585,11.466 150.68,11.76 150.731,12.124 C150.781,12.489 150.806,13.027 150.806,13.735 L150.806,21.427 C150.806,22.278 150.711,22.846 150.522,23.13 Z M122.843,6.5 C123.132,6.784 123.467,7.012 123.846,7.184 C124.226,7.357 124.635,7.442 125.074,7.442 C125.513,7.442 125.928,7.357 126.318,7.184 C126.707,7.012 127.046,6.784 127.336,6.5 C127.626,6.217 127.856,5.877 128.025,5.482 C128.195161,5.08312104 128.281939,4.6536534 128.28,4.22 C128.281939,3.7863466 128.195161,3.35687896 128.025,2.958 C127.864879,2.57646055 127.630697,2.23045574 127.336,1.94 C127.040516,1.65269196 126.695671,1.42098872 126.318,1.256 C125.926115,1.08328799 125.502251,0.995039792 125.074,0.997 C124.635,0.997 124.221,1.084 123.831,1.256 C123.453365,1.42017197 123.112352,1.65816693 122.828,1.956 C122.545427,2.25322491 122.31729,2.5977996 122.154,2.974 C121.984,3.359 121.899,3.774 121.899,4.22 C121.899,4.666 121.984,5.086 122.154,5.482 C122.324,5.877 122.554,6.217 122.843,6.5 Z M115.579,14.263 L113.542,13.593 C111.645,12.964 110.696,12.04 110.696,10.821 C110.696,10.253 110.901,9.771 111.31,9.374 C111.72,8.979 112.213,8.781 112.793,8.781 C113.272,8.781 113.771,8.917 114.291,9.191 C114.852638,9.49533493 115.3673,9.87931065 115.819,10.331 C116.318,10.817 116.787,11.395 117.226,12.063 C117.665,12.732 118.045,13.462 118.365,14.253 L118.664,14.253 L118.365,9.267 C117.246,8.943 116.278,8.719 115.459,8.598 C114.655902,8.47770758 113.845056,8.41654315 113.033,8.415 C112.114,8.415 111.266,8.543 110.487,8.796 C109.708,9.05 109.034,9.4 108.464,9.847 C107.910669,10.2765632 107.452079,10.8158402 107.117,11.431 C106.787333,12.0385662 106.617031,12.7197748 106.622,13.411 C106.622,14.528 107.031,15.488 107.851,16.289 C108.669,17.092 110.037,17.828 111.954,18.497 L113.422,19.016 C114.48,19.381 115.214,19.778 115.624,20.204 C116.033,20.631 116.238,21.179 116.238,21.849 C116.238,22.499 116.038,23.027 115.639,23.433 C115.239,23.839 114.71,24.042 114.052,24.042 C113.412,24.042 112.768,23.874 112.119,23.54 C111.47,23.206 110.831,22.725 110.202,22.096 C109.573,21.468 108.974,20.703 108.405,19.801 C107.802377,18.8353481 107.27643,17.8239125 106.832,16.776 L106.533,16.776 L106.832,22.826 C107.204518,22.9852857 107.584264,23.1271065 107.97,23.251 C108.15,23.313 108.345,23.373 108.554,23.434 C108.764,23.494 109.038,23.576 109.378,23.677 C110.162667,23.9276481 110.963528,24.1244389 111.775,24.266 C112.094,24.322 112.389,24.36 112.658,24.378 C112.928,24.397 113.202,24.407 113.482,24.407 C114.44,24.407 115.329,24.269 116.148,23.996 C116.966,23.722 117.671,23.34 118.26,22.854 C118.840571,22.3764695 119.310704,21.7787391 119.638,21.102 C119.967,20.422 120.132,19.685 120.132,18.893 C120.132,17.796 119.773,16.883 119.054,16.152 C118.335,15.421 117.177,14.791 115.579,14.263 Z M104.466,22.919 C104.366597,22.7589766 104.309795,22.5761786 104.301,22.388 C104.291,22.197 104.275,21.878 104.256,21.434 L104.226,20.675 L104.226,12.641 C104.226,11.792 104.166,11.13 104.046,10.655 C103.939495,10.2061422 103.734933,9.78643191 103.447,9.426 C102.888,8.74 102.059,8.396 100.961,8.396 C100.321,8.396 99.698,8.503 99.089,8.714 C98.479,8.926 97.826,9.265 97.127,9.73 C96.6200136,10.0692909 96.1300841,10.4334006 95.659,10.821 C95.459,10.983 95.219,11.185 94.94,11.428 L94.94,1.12 C94.542,1.261 94.195,1.377 93.897,1.468 C93.599,1.559 93.311,1.65 93.033,1.741 C92.756,1.832 92.462,1.918 92.155,1.998 C91.846,2.08 91.484,2.18 91.068,2.302 C90.67,2.403 90.317,2.494 90.01,2.575 C89.4094442,2.73286554 88.8060067,2.87955753 88.2,3.015 C87.88,3.085 87.511,3.161 87.091,3.242 L87.121,3.575 C87.64,3.596 88.045,3.672 88.335,3.803 C88.624,3.934 88.878,4.151 89.098,4.455 C89.318,4.778 89.468,5.157 89.548,5.591 C89.627,6.026 89.668,6.698 89.668,7.607 L89.668,20.068 C89.668,21.019 89.638,21.686 89.578,22.07 C89.518,22.454 89.408,22.757 89.248,22.979 C89.0702214,23.20074 88.8303203,23.3643881 88.559,23.449 C88.279,23.541 87.85,23.606 87.271,23.647 L87.271,24.011 L96.348,24.011 L96.348,23.647 C95.988,23.606 95.719,23.53 95.539,23.419 C95.3513063,23.2981595 95.20482,23.1230735 95.119,22.917 C95.0795938,22.8187758 95.0497882,22.7169677 95.03,22.613 C94.9674183,22.2820569 94.9372755,21.9457973 94.94,21.609 L94.94,11.881 C95.402,11.476 95.82,11.187 96.192,11.015 C96.5259371,10.8519915 96.8914659,10.763937 97.263,10.757 C97.525,10.757 97.776,10.817 98.018,10.938 C98.259,11.06 98.45,11.223 98.591,11.425 C98.7518703,11.6460384 98.8602791,11.9008161 98.908,12.17 C98.959,12.444 98.984,12.854 98.984,13.401 L98.984,21.427 C98.984,22.278 98.889,22.846 98.699,23.13 C98.509,23.414 98.135,23.586 97.576,23.647 L97.576,24.011 L106.023,24.011 L106.023,23.647 C105.564,23.606 105.219,23.53 104.989,23.419 C104.765451,23.3128868 104.582053,23.1375537 104.466,22.919 Z M85.864,22.152 C85.624,22.193 85.364,22.213 85.085,22.213 C84.186,22.213 83.547,21.964 83.167,21.467 C82.788,20.969 82.598,20.141 82.598,18.984 L82.598,10.21 L85.624,10.21 L86.373,8.811 L82.598,8.811 L82.598,2.609 C82.321,3.015 82.077,3.364 81.869,3.658 C81.66,3.952 81.451,4.225 81.243,4.479 C81.034,4.732 80.816,4.976 80.588,5.208 C80.359,5.442 80.096,5.7 79.798,5.983 C79.0373788,6.71215156 78.2314394,7.39250737 77.385,8.02 C77.026,8.284 76.712,8.507 76.442,8.689 C75.9015873,9.06161241 75.3362615,9.39673167 74.75,9.692 C74.43,9.855 74.061,10.027 73.642,10.21 L77.326,10.21 L77.326,19.319 C77.326,20.436 77.425,21.3 77.624,21.909 C77.8154788,22.5076275 78.1780652,23.0370801 78.667,23.432 C79.46,24.081 80.443,24.407 81.615,24.407 C82.451,24.407 83.272,24.233 84.081,23.889 C84.89,23.544 85.853,22.954 86.972,22.122 L86.792,21.878 C86.412,22.02 86.103,22.112 85.864,22.152 Z M72.623,22.979 C72.5417633,22.8564959 72.4765653,22.7240835 72.429,22.585 C72.3714172,22.4127194 72.3308895,22.2352011 72.308,22.055 C72.2741976,21.78856 72.2545035,21.5205193 72.249,21.252 C72.2371562,20.8574482 72.2318221,20.4627278 72.233,20.068 L72.233,1.12 C71.836,1.241 71.499,1.347 71.221,1.437 C70.943,1.529 70.67,1.619 70.402,1.711 C70.133,1.802 69.841,1.893 69.523,1.983 C69.206,2.074 68.808,2.18 68.331,2.302 C67.9397975,2.40607017 67.5477854,2.50707327 67.155,2.605 C66.826,2.685 66.522,2.762 66.243,2.833 C65.963,2.904 65.678,2.969 65.389,3.03 C65.099,3.091 64.755,3.161 64.356,3.242 L64.415,3.575 C64.915,3.596 65.309,3.672 65.599,3.803 C65.888,3.934 66.142,4.151 66.363,4.455 C66.602,4.778 66.762,5.157 66.842,5.591 C66.921,6.026 66.961,6.698 66.961,7.607 L66.961,20.068 C66.961,21.019 66.932,21.691 66.872,22.085 C66.812,22.48 66.712,22.778 66.573,22.979 C66.4055283,23.1922242 66.1822775,23.354903 65.928,23.449 C65.678,23.541 65.294,23.606 64.775,23.647 L64.775,24.011 L74.421,24.011 L74.421,23.647 C73.881,23.606 73.487,23.541 73.237,23.449 C72.9887752,23.3593764 72.7743207,23.1952174 72.623,22.979 Z M56.908,20.059 C56.908,20.769 56.747,21.326 56.428,21.731 C56.109,22.137 55.669,22.339 55.11,22.339 C54.551,22.339 54.122,22.096 53.822,21.61 C53.523,21.123 53.372,20.424 53.372,19.512 C53.372,18.742 53.482,18.104 53.702,17.597 C53.922,17.09 54.281,16.665 54.781,16.32 C55.06,16.097 55.34,15.93 55.619,15.818 C55.899,15.707 56.328,15.55 56.908,15.347 L56.908,20.059 Z M64.695,21.762 C64.4829864,21.8925861 64.2573074,21.9995573 64.022,22.081 C63.8520031,22.1318823 63.6754478,22.1574895 63.498,22.157 C63.238,22.157 63.008,22.101 62.809,21.99 C62.6168991,21.8881604 62.4678282,21.7206332 62.389,21.518 C62.289,21.336 62.229,21.119 62.21,20.865 C62.189,20.611 62.18,20.191 62.18,19.604 L62.18,12.611 C62.18,11.72 62.095,11.025 61.926,10.528 C61.7494792,10.021219 61.4350147,9.57376519 61.018,9.236 C60.363,8.689 59.459,8.416 58.307,8.416 C57.195,8.416 55.974,8.573 54.646,8.886 C53.3188949,9.20051835 52.0287338,9.6543708 50.797,10.24 C48.48,11.314 47.322,12.591 47.322,14.07 C47.322,14.699 47.516,15.21 47.906,15.606 C48.296,16 48.799,16.198 49.419,16.198 C50.257,16.198 50.961,15.92 51.531,15.362 C52.1,14.805 52.444,14.04 52.564,13.067 L52.684,12.155 C52.784,11.507 52.898,10.999 53.028,10.635 C53.158,10.27 53.353,9.976 53.612,9.753 C53.812,9.591 54.047,9.46 54.316,9.357 C54.586,9.257 54.86,9.206 55.14,9.206 C55.519,9.206 55.849,9.312 56.129,9.525 C56.408,9.738 56.597,10.027 56.697,10.392 C56.837,10.898 56.908,11.902 56.908,13.401 L56.908,14.982 C53.692,15.935 51.176,16.927 49.359,17.962 C47.96,18.772 47.262,19.816 47.262,21.093 C47.262,22.086 47.66,22.886 48.457,23.494 C49.255,24.102 50.282,24.407 51.537,24.407 C52.932,24.407 54.127,24.062 55.124,23.373 C55.483,23.13 55.782,22.886 56.021,22.644 C56.26,22.401 56.559,22.025 56.918,21.518 C57.297,23.464 58.293,24.437 59.908,24.437 C60.665,24.437 61.422,24.249 62.181,23.874 C62.938,23.5 63.837,22.867 64.876,21.975 L64.695,21.762 Z M36.398,10.271 C36.827,9.277 37.461,8.781 38.299,8.781 C38.898,8.781 39.358,9.032 39.678,9.533 C39.997,10.035 40.197,10.839 40.276,11.945 C40.296,12.15 40.312,12.334 40.321,12.498 L40.351,13.036 C40.361,13.23 40.366,13.45 40.366,13.696 L40.366,14.587 L35.753,14.587 C35.753,12.703 35.968,11.264 36.398,10.271 Z M44.77,19.01 C44.57,19.244 44.3,19.472 43.961,19.694 C43.082,20.323 42.014,20.637 40.756,20.637 C37.441,20.637 35.773,18.742 35.753,14.952 L45.669,14.952 C45.5642215,14.0104621 45.2951465,13.0945917 44.874,12.246 C44.4859647,11.4631652 43.9524711,10.7613429 43.302,10.178 C42.6525855,9.60566311 41.9002078,9.16210985 41.085,8.871 C40.247,8.568 39.328,8.416 38.329,8.416 C37.2331251,8.40722569 36.1472021,8.6244103 35.139,9.054 C33.1814367,9.87890137 31.6268675,11.4406544 30.811,13.402 C30.3875894,14.4121853 30.1732767,15.4976958 30.181,16.593 C30.181,17.709 30.381,18.742 30.781,19.694 C31.1637583,20.6228082 31.7289015,21.4654224 32.443,22.172 C33.165452,22.8795555 34.020459,23.4375529 34.959,23.814 C35.9540036,24.213868 37.0176913,24.4149869 38.09,24.406 C39.268,24.406 40.346,24.179 41.325,23.723 C42.3009685,23.2676793 43.1611488,22.5972447 43.841,21.762 C44.061,21.478 44.256,21.215 44.425,20.971 C44.595,20.728 44.75,20.475 44.89,20.212 C45.029,19.948 45.169,19.649 45.309,19.314 C45.449,18.98 45.609,18.569 45.788,18.083 L45.519,17.962 C45.219,18.428 44.969,18.778 44.77,19.01 Z M31.887,7.002 C32.277,6.364 32.661,5.812 33.041,5.345 C33.32,5 33.585,4.748 33.835,4.585 C34.084,4.423 34.459,4.241 34.958,4.038 L34.958,3.734 L27.439,3.734 L27.439,4.038 C27.878,4.139 28.208,4.246 28.427,4.357 C28.647,4.469 28.847,4.636 29.027,4.859 C29.526,5.487 29.776,6.389 29.776,7.564 C29.776,8.598 29.571,9.794 29.162,11.152 C28.752,12.51 28.168,13.989 27.409,15.59 L26.66,17.141 L22.916,8.111 C22.736,7.666 22.591,7.23 22.482,6.804 C22.371,6.378 22.317,6.044 22.317,5.801 C22.317,4.808 22.856,4.22 23.935,4.038 L23.935,3.734 L13.09,3.734 L13.09,4.038 C13.47,4.099 13.765,4.174 13.974,4.266 C14.184,4.357 14.369,4.484 14.528,4.646 C14.987,5.112 15.477,5.953 15.996,7.169 L17.763,11.364 L14.708,17.597 L10.035,6.713 C9.856,6.288 9.765,5.912 9.765,5.588 C9.765,5.204 9.86,4.894 10.05,4.661 C10.24,4.428 10.554,4.22 10.994,4.038 L10.994,3.734 L0,3.734 L0,4.038 C0.579,4.2 1.028,4.368 1.348,4.539 C1.667,4.711 1.967,4.97 2.246,5.315 C2.586,5.72 2.956,6.257 3.355,6.925 C3.755,7.595 4.094,8.254 4.373,8.902 L11.533,25.015 L17.914,11.881 L23.545,25.015 L30.854,8.963 C31.154,8.294 31.498,7.64 31.887,7.002 Z" id="Shape"></path>
        </g>
    </g>
</svg>